<svg width="19" height="19" viewBox="0 0 19 19" fill="none" xmlns="http://www.w3.org/2000/svg">
<path d="M15.1247 7.70847L17.8566 5.1369L17.8725 5.12191C18.4352 4.55923 18.7513 3.79608 18.7513 3.00034C18.7513 2.2046 18.4352 1.44145 17.8725 0.87878C17.3098 0.316107 16.5467 0 15.7509 0C14.9552 0 14.1921 0.316107 13.6294 0.87878L13.6144 0.894717L11.0428 3.62659L3.26157 0.795343C3.12746 0.746564 2.98221 0.737061 2.84289 0.767948C2.70356 0.798835 2.57594 0.868831 2.47501 0.969718L0.225007 3.21972C0.146603 3.29818 0.0865797 3.39307 0.049263 3.49752C0.0119462 3.60198 -0.0017352 3.71342 0.00920455 3.8238C0.0201443 3.93419 0.0554328 4.04077 0.112527 4.13587C0.169622 4.23098 0.247101 4.31223 0.339382 4.37378L6.32907 8.36659L4.93969 9.75128H3.00001C2.80136 9.75137 2.61086 9.83027 2.47032 9.97066L0.220319 12.2207C0.132571 12.3082 0.0678839 12.4161 0.0320427 12.5348C-0.00379855 12.6534 -0.00967654 12.7791 0.0149343 12.9006C0.0395451 13.022 0.0938776 13.1355 0.173073 13.2309C0.252268 13.3262 0.353858 13.4004 0.468757 13.4469L3.92063 14.8278L5.29876 18.2732L5.30438 18.2882C5.35206 18.4036 5.42779 18.5052 5.52471 18.584C5.62164 18.6627 5.73668 18.716 5.85941 18.739C5.98214 18.762 6.10867 18.754 6.22752 18.7157C6.34637 18.6774 6.45378 18.61 6.54001 18.5197L8.77782 16.281C8.84784 16.2116 8.90351 16.1291 8.94163 16.0382C8.97976 15.9474 8.99959 15.8498 9.00001 15.7513V13.8116L10.3838 12.4278L14.3766 18.4175C14.4381 18.5098 14.5194 18.5873 14.6145 18.6444C14.7096 18.7015 14.8162 18.7368 14.9265 18.7477C15.0369 18.7586 15.1484 18.745 15.2528 18.7076C15.3573 18.6703 15.4522 18.6103 15.5306 18.5319L17.7806 16.2819C17.8815 16.181 17.9515 16.0534 17.9824 15.914C18.0133 15.7747 18.0038 15.6295 17.955 15.4953L15.1247 7.70847ZM15.1181 16.8238L11.1253 10.8341C11.064 10.7413 10.9828 10.6633 10.8876 10.6057C10.7925 10.5481 10.6857 10.5125 10.575 10.5013C10.5503 10.4999 10.5256 10.4999 10.5009 10.5013C10.4024 10.5012 10.3049 10.5205 10.2138 10.5582C10.1228 10.5958 10.04 10.651 9.97032 10.7207L7.72032 12.9707C7.65052 13.0403 7.59514 13.123 7.55734 13.214C7.51953 13.3051 7.50005 13.4027 7.50001 13.5013V15.441L6.27469 16.6663L5.19657 13.97C5.15885 13.8764 5.10262 13.7914 5.03126 13.72C4.9599 13.6487 4.87486 13.5924 4.78126 13.5547L2.08688 12.4766L3.31126 11.2513H5.25001C5.34853 11.2514 5.4461 11.232 5.53714 11.1944C5.62819 11.1567 5.71093 11.1015 5.78063 11.0319L8.03063 8.78191C8.10921 8.70343 8.16938 8.60849 8.20679 8.50394C8.24421 8.39938 8.25795 8.28782 8.247 8.17732C8.23606 8.06681 8.20071 7.96011 8.14352 7.86492C8.08632 7.76974 8.0087 7.68844 7.91626 7.6269L1.92751 3.63315L3.19313 2.36847L10.995 5.20534C11.1325 5.25585 11.2817 5.26501 11.4243 5.23169C11.5669 5.19837 11.6967 5.12403 11.7975 5.01784L14.6981 1.93534C14.983 1.67444 15.3575 1.53349 15.7437 1.54183C16.1298 1.55017 16.4979 1.70716 16.7712 1.98011C17.0446 2.25306 17.202 2.62093 17.2109 3.0071C17.2197 3.39327 17.0793 3.76797 16.8188 4.05315L13.7372 6.95378C13.631 7.05463 13.5567 7.18436 13.5233 7.32697C13.49 7.46958 13.4992 7.61882 13.5497 7.75628L16.3866 15.5582L15.1181 16.8238Z" fill="#EF5F4C"/>
</svg>
